<svg width="15" height="16" viewBox="0 0 15 16" fill="none" xmlns="http://www.w3.org/2000/svg">
<path d="M6.24454 1.72804C6.01861 1.50835 5.82645 1.31379 5.62516 1.12946C5.60292 1.10914 5.50852 1.01202 5.50852 1.01202L6.52038 0C6.52038 0 6.57126 0.0596813 6.60694 0.096002C7.3764 0.867538 8.94987 2.44197 8.95547 2.45029L6.48454 4.9089C6.19654 4.61498 5.58852 3.98648 5.58852 3.98648L5.51652 3.91048C5.51652 3.91048 6.00533 3.43815 6.19686 3.25271L6.15862 3.18407C5.75941 3.34647 5.34756 3.48343 4.96371 3.67592C3.79777 4.26073 2.93247 5.15627 2.37166 6.32989C1.92573 7.26287 1.73676 8.25169 1.8406 9.28883C2.04093 11.2911 3.02175 12.7988 4.74851 13.8115C5.82613 14.4435 7.00727 14.6755 8.24442 14.5128C10.4918 14.2173 12.0554 12.9976 12.9487 10.9234C13.2077 10.322 13.3327 9.68372 13.3472 9.02595C13.3498 8.90547 13.3472 8.77618 13.3472 8.77618C13.3472 8.77618 13.4752 8.77618 13.6033 8.77618C13.9321 8.77618 14.2612 8.78258 14.5897 8.7733C14.665 8.77122 14.7868 8.77682 14.7868 8.77682C14.7868 8.77682 14.7892 8.89347 14.7868 8.96995C14.7548 10.0052 14.5308 10.9956 14.0697 11.9231C13.181 13.7123 11.8015 14.9824 9.89885 15.5965C7.21912 16.4605 4.79155 15.9325 2.68942 14.0555C1.483 12.9782 0.748102 11.6074 0.493696 10.0145C0.129849 7.73744 0.709221 5.71036 2.25277 3.98232C3.29488 2.8151 4.60018 2.09076 6.12645 1.76004C6.14853 1.75508 6.17062 1.74804 6.24454 1.72804Z" fill="white"/>
</svg>
